<svg xmlns="http://www.w3.org/2000/svg" viewBox="0 0 720 360" role="img" aria-label="Physical design signoff flow diagram">
<rect width="720" height="360" rx="28" fill="#0b102f"/>
<g fill="none" stroke="#653593" stroke-width="3">
  <rect x="55" y="75" width="610" height="210" rx="12"/>
  <rect x="90" y="110" width="160" height="70" rx="8"/>
  <rect x="275" y="110" width="160" height="70" rx="8"/>
  <rect x="460" y="110" width="160" height="70" rx="8"/>
  <rect x="90" y="205" width="530" height="45" rx="8"/>
</g>
<path d="M250 145H275M435 145H460M170 180V205M355 180V205M540 180V205" stroke="#ef7700" stroke-width="5" stroke-linecap="round"/>
<circle cx="355" cy="228" r="10" fill="#ef7700"/>
<g fill="#fff" font-family="Space Grotesk, sans-serif" font-size="15" font-weight="700" text-anchor="middle">
  <text x="170" y="140">FLOORPLAN</text>
  <text x="355" y="140">PLACEMENT</text>
  <text x="540" y="140">CTS</text>
</g>
<g fill="#c8cad7" font-family="IBM Plex Mono, monospace" font-size="12" text-anchor="middle">
  <text x="170" y="162">BLOCK SETUP</text>
  <text x="355" y="162">CONGESTION</text>
  <text x="540" y="162">CLOCK TREE</text>
  <text x="355" y="224">ROUTING • OPTIMIZATION • CLOSURE</text>
</g>
<text x="55" y="50" fill="#fff" font-family="Space Grotesk, sans-serif" font-size="24" font-weight="700">PHYSICAL IMPLEMENTATION</text>
<text x="55" y="325" fill="#a9aec4" font-family="IBM Plex Mono, monospace" font-size="13">FLOORPLAN • CTS • ROUTING • OPTIMIZATION</text>
</svg>
